<svg fill="#5c3fc6" width="64px" height="64px" viewBox="-107.52 -107.52 727.04 727.04" xmlns="http://www.w3.org/2000/svg" stroke="#5c3fc6" stroke-width="51.2" transform="rotate(0)matrix(1, 0, 0, 1, 0, 0)"><g id="SVGRepo_bgCarrier" stroke-width="0" transform="translate(66.56,66.56), scale(0.74)"><path transform="translate(-107.52, -107.52), scale(45.44)" fill="#d5a31a" d="M9.166.33a2.25 2.25 0 00-2.332 0l-5.25 3.182A2.25 2.25 0 00.5 5.436v5.128a2.25 2.25 0 001.084 1.924l5.25 3.182a2.25 2.25 0 002.332 0l5.25-3.182a2.25 2.25 0 001.084-1.924V5.436a2.25 2.25 0 00-1.084-1.924L9.166.33z" strokewidth="0"></path></g><g id="SVGRepo_tracerCarrier" stroke-linecap="round" stroke-linejoin="round" stroke="#947a7a" stroke-width="5.12"></g><g id="SVGRepo_iconCarrier"><title>ionicons-v5_logos</title><path d="M410.32,37.13c-13.56,0-27-.93-39.12-5.13L256,218.67,140.8,32c-12.12,4.2-24.84,5.13-38.4,5.13C89.08,37.13,75.88,36.08,64,32L217.6,280.15V480c12-4.08,25-5.13,38.4-5.13s26.4,1.05,38.4,5.13V280.5L448,32C436.12,36,423.64,37.13,410.32,37.13Z"></path></g></svg>